PathFileType	4	(X/Y/Z)	P:\Projects\LMB_grand_challenge_database\project_only\opensim\experimental_data\SixthCompetition/DM_bouncy5_new.trc
DataRate	CameraRate	NumFrames	NumMarkers	Units	OrigDataRate	OrigDataStartFrame	OrigNumFrames
120	120	7	68	mm	120	213	342
Frame#	Time	Sternum			Neck			R_Shoulder			L_Shoulder			Xiphoid			Thoracic			R_Asis			L_Asis			R_Psis			L_Psis			Lumbar			R_Elbow			R_ElbowMedial			R_ShoulderAnterior			R_ShoulderPosterior			R_Wrist			R_Radius			R_Ulna			L_Elbow			L_ElbowMedial			L_ShoulderAnterior			L_ShoulderPosterior			L_Wrist			L_Ulna			L_Radius			L_Thigh_Superior			L_Thigh_Inferior			L_Thigh_Lateral			L_Knee_Lateral			L_Knee_Medial			L_Patella			L_Shank_Superior			L_Shank_Inferior			L_Shank_Lateral			L_Ankle_Lateral			L_Ankle_Medial			R_Thigh_Superior			R_Thigh_Inferior			R_Thigh_Lateral			R_Knee_Lateral			R_Knee_Medial			R_Patella			R_Shank_Superior			R_Shank_Inferior			R_Shank_Lateral			R_Ankle_Lateral			RankleMedial			R_Heel			R_Toe			R_Midfoot_Medial			R_Midfoot_Lateral			R_Hindfoot			R_Midfoot_Superior			R_ToeMedial			R_ToeLateral			L_Heel			L_Toe			L_Midfoot_Medial			L_Midfoot_Lateral			L_Hindfoot			L_Midfoot_Superior			L_ToeMedial			L_ToeLateral			Oglobal			Sacral			Xglobal			Yglobal			Zglobal			
		X1	Y1	Z1	X2	Y2	Z2	X3	Y3	Z3	X4	Y4	Z4	X5	Y5	Z5	X6	Y6	Z6	X7	Y7	Z7	X8	Y8	Z8	X9	Y9	Z9	X10	Y10	Z10	X11	Y11	Z11	X12	Y12	Z12	X13	Y13	Z13	X14	Y14	Z14	X15	Y15	Z15	X16	Y16	Z16	X17	Y17	Z17	X18	Y18	Z18	X19	Y19	Z19	X20	Y20	Z20	X21	Y21	Z21	X22	Y22	Z22	X23	Y23	Z23	X24	Y24	Z24	X25	Y25	Z25	X26	Y26	Z26	X27	Y27	Z27	X28	Y28	Z28	X29	Y29	Z29	X30	Y30	Z30	X31	Y31	Z31	X32	Y32	Z32	X33	Y33	Z33	X34	Y34	Z34	X35	Y35	Z35	X36	Y36	Z36	X37	Y37	Z37	X38	Y38	Z38	X39	Y39	Z39	X40	Y40	Z40	X41	Y41	Z41	X42	Y42	Z42	X43	Y43	Z43	X44	Y44	Z44	X45	Y45	Z45	X46	Y46	Z46	X47	Y47	Z47	X48	Y48	Z48	X49	Y49	Z49	X50	Y50	Z50	X51	Y51	Z51	X52	Y52	Z52	X53	Y53	Z53	X54	Y54	Z54	X55	Y55	Z55	X56	Y56	Z56	X57	Y57	Z57	X58	Y58	Z58	X59	Y59	Z59	X60	Y60	Z60	X61	Y61	Z61	X62	Y62	Z62	X63	Y63	Z63	X64	Y64	Z64	X65	Y65	Z65	X66	Y66	Z66	X67	Y67	Z67	X68	Y68	Z68	

214	2.633333	903.447	1310.68	177.163	753.918	1407.33	201.548	873.259	1340.99	350.96	801.057	1352.78	13.5994	906.724	1146.28	183.318	641.966	1232.57	202.098	798.09	922.273	330.926	809.199	926.701	54.9152	602.513	982.79	216.333	604.143	979.1559999999999	138.583	610.7380000000001	1029.8	180.981	876.011	1025.46	445.836	-0	0	0	-0	0	0	-0	0	0	1002.46	788.114	383.64	993.905	800.201	342.114	961.367	774.956	400.083	661.742	1045.41	-73.98099999999999	-0	0	0	-0	0	0	-0	0	0	624.109	778.145	-103.99	586.711	808.645	-104.947	643.449	789.404	-60.3689	804.697	779.296	25.6202	935.991	602.438	87.8779	925.247	703.366	116.006	-0	0	0	-0	0	0	994.872	524.1130000000001	151.783	940.504	444.391	81.2086	892.91	178.458	75.8871	937.946	300.393	153.689	-0	0	0	-0	0	0	685.367	749.087	349.54	650.749	535.549	308.016	744.366	645.673	333.404	-0	0	0	-0	0	0	706.399	417.006	252.493	524.737	405.047	311.558	381.313	254.01	294.421	522.2	295.024	236.715	-0	0	0	-0	0	0	232.366	208.922	241.527	453.378	28.052	225.07	379.26	44.5248	176.628	364.274	36.0185	292.626	282.121	110.475	284.941	391.024	141.843	244.079	415.79	33.6565	182.102	411.058	31.3905	273.648	803.338	62.0215	123.208	1102.96	55.134	130.044	1020.75	34.5048	179.27	1012.89	34.661	65.0579	904.66	28.3006	69.6994	967.496	120.208	124.067	1063.31	37.0985	171.302	1066.58	37.5699	76.5716	-0	0	0	603.328	980.973	177.458	-200	0	0	-0	0	200	-0	200	0	
215	2.641667	913.103	1311.37	176.855	763.296	1407.29	201.29	882.8099999999999	1341.29	350.619	810.278	1352.64	13.4953	916.989	1146.9	183.037	651.877	1232.29	201.732	808.352	921.871	330.435	820.2329999999999	927.501	54.2187	612.985	982.472	215.532	614.896	978.9829999999999	137.795	621.163	1029.58	180.291	885.112	1025.77	445.157	-0	0	0	-0	0	0	-0	0	0	1007.17	785.9450000000001	384.384	998.803	797.628	342.768	965.693	773.27	400.909	676.026	1043.26	-74.6622	-0	0	0	-0	0	0	-0	0	0	641.989	775.357	-104.715	604.237	805.838	-106.176	660.5940000000001	787.085	-61.0007	814.658	777.623	25.3864	944.909	600.909	87.61709999999999	935.276	702.953	115.901	-0	0	0	-0	0	0	1002.52	521.283	152.678	948.329	443.143	82.1009	894.465	177.995	76.4054	943.196	298.937	153.991	-0	0	0	-0	0	0	698.728	747.967	348.554	667.96	533.335	308.005	759.128	645.1950000000001	333.243	-0	0	0	-0	0	0	724.228	415.385	253.216	541.383	406.821	311.955	394.216	259.956	294.945	536.482	296.702	237.625	-0	0	0	-0	0	0	246.249	222.352	242.463	455.444	26.5527	225.725	383.289	49.8907	176.939	367.742	41.7894	292.892	290.21	120.896	285.498	400.793	146.016	244.811	418.752	35.7795	182.587	413.52	32.3456	274.308	803.443	62.0958	123.285	1103.22	54.3203	130.153	1020.93	33.3979	178.441	1012.69	34.2864	64.25920000000001	904.742	28.672	69.431	967.4400000000001	119.508	123.944	1063.41	36.5018	171.378	1066.76	37.4928	76.65900000000001	-0	0	0	613.941	980.728	176.663	-200	0	0	-0	0	200	-0	200	0	
216	2.65	922.737	1312.19	176.766	772.526	1407.47	201.003	892.4589999999999	1341.89	350.323	819.532	1352.89	13.4836	927.146	1147.54	182.807	661.595	1232.2	201.42	818.211	921.854	330.148	830.977	928.034	53.4367	623.1369999999999	982.253	214.652	625.383	978.914	136.749	631.2910000000001	1029.47	179.341	893.763	1025.93	444.858	-0	0	0	-0	0	0	-0	0	0	1011.68	783.674	385.124	1003.2	794.912	343.184	969.849	771.819	401.523	690.458	1041.17	-75.62569999999999	-0	0	0	-0	0	0	-0	0	0	660.612	772.8869999999999	-105.181	622.543	802.924	-107.558	678.285	784.866	-61.3875	824.246	776.373	25.3497	953.617	598.873	87.3554	945.824	701.904	115.358	-0	0	0	-0	0	0	1011.69	520.439	153.814	954.342	441.377	82.1635	895.98	177.595	76.72969999999999	948.23	297.781	153.816	-0	0	0	-0	0	0	711.801	747.005	347.504	684.361	531.813	308.31	773.811	645.0650000000001	333.163	-0	0	0	-0	0	0	742.131	413.945	253.891	558.598	409.237	312.101	407.794	266.199	295.137	551.277	298.767	238.538	-0	0	0	-0	0	0	261.389	235.793	243.426	458.111	24.7691	226.343	388.755	56.5532	176.587	371.902	47.9014	292.318	298.712	131.698	285.408	411.181	150.69	245.819	422.817	38.3669	183.352	416.684	33.6526	274.821	803.511	62.2174	123.322	1103.45	53.6001	130.335	1020.87	33.0411	178.755	1012.77	33.9196	64.5635	904.742	28.5398	69.6096	967.764	119.303	124.171	1063.51	36.2174	171.468	1066.84	37.2479	76.6679	-0	0	0	624.26	980.5839999999999	175.7	-200	0	0	-0	0	200	-0	200	0	
217	2.658333	932.311	1313.09	176.8	781.427	1407.8	201.03	901.754	1342.4	350.57	828.7089999999999	1353.24	13.205	937.019	1148.09	182.73	671.423	1232.27	200.91	828.324	921.537	329.414	841.74	929.2859999999999	52.6467	633.4059999999999	982.158	213.774	635.823	979.053	135.829	641.484	1029.49	178.693	902.309	1026.11	444.601	-0	0	0	-0	0	0	-0	0	0	1016.36	781.65	386.139	1008.13	792.79	344.275	973.966	770.496	402.448	704.883	1039.38	-76.0857	-0	0	0	-0	0	0	-0	0	0	679.669	770.774	-105.66	641.068	800.2140000000001	-108.338	696.494	783.061	-61.5682	833.355	775.479	25.1134	961.7859999999999	596.461	87.3386	956.706	699.71	114.246	-0	0	0	-0	0	0	1019.69	518.784	154.792	958.383	439.971	81.7002	897.6180000000001	177.345	76.91889999999999	952.965	296.754	153.895	-0	0	0	-0	0	0	724.8390000000001	746.234	346.495	701.082	530.559	308.659	788.764	645.264	333.224	-0	0	0	-0	0	0	759.2140000000001	411.822	253.836	575.703	411.834	312.394	421.8	272.615	295.516	566.591	301.11	239.519	-0	0	0	-0	0	0	277.83	248.941	244.146	460.896	22.6952	227.274	395.27	63.2756	176.674	377.105	54.6709	292.21	308.516	142.441	285.657	422.562	155.391	246.849	427.774	40.9464	184.271	420.073	34.9164	275.378	803.578	62.3481	123.357	1103.6	53.2169	130.348	1020.82	32.7728	179.021	1012.85	33.7045	64.82040000000001	904.703	28.5196	69.7792	968.184	119.234	124.409	1063.62	35.977	171.497	1066.95	37.0561	76.7843	-0	0	0	634.615	980.606	174.801	-200	0	0	-0	0	200	-0	200	0	
218	2.666667	941.473	1314.15	176.859	790.432	1408.25	200.987	910.9299999999999	1343.1	350.709	837.708	1353.66	13.1956	946.797	1148.71	182.526	680.9690000000001	1232.38	200.619	838.329	921.487	328.616	852.252	930.177	51.9958	643.511	982.116	212.811	646.082	979.189	134.995	651.546	1029.54	177.942	910.566	1026.25	444.386	-0	0	0	-0	0	0	-0	0	0	1020.68	780.3390000000001	387.102	1012.69	790.393	345.071	978.476	769.331	403.615	719.658	1037.59	-76.7034	-0	0	0	-0	0	0	-0	0	0	699.073	768.756	-105.944	660.0359999999999	797.476	-109.506	715.11	781.171	-61.7716	842.481	775.023	24.4825	969.393	593.614	86.9479	967.239	696.3630000000001	112.028	-0	0	0	-0	0	0	1026.81	516.821	155.241	963.026	438.985	81.14790000000001	899.467	177.074	77.3446	957.078	295.8	153.869	-0	0	0	-0	0	0	737.697	745.635	345.616	718.875	529.178	309.189	802.926	646.015	333.82	-0	0	0	-0	0	0	776.972	410.724	254.588	593.611	414.397	312.989	436.828	278.811	296.118	582.247	303.571	240.63	-0	0	0	-0	0	0	295.685	261.273	244.226	463.287	20.2812	228.192	403.061	69.2861	177.685	383.584	61.7912	293.084	319.767	152.961	286.216	434.887	159.817	248.035	433.238	42.7938	184.811	423.82	35.9689	276.061	803.643	62.5145	123.459	1103.68	52.9524	130.343	1020.88	32.4074	178.846	1012.85	33.9366	64.6568	904.855	28.7906	69.5633	968.571	119.296	124.713	1063.79	35.4674	171.212	1067.06	36.8722	76.8466	-0	0	0	644.797	980.652	173.903	-200	0	0	-0	0	200	-0	200	0	
219	2.675	950.6180000000001	1315.35	177.059	799.316	1408.71	201.004	919.926	1343.58	350.855	846.871	1354.1	13.4594	956.253	1149.61	182.541	690.577	1232.6	200.322	848.15	921.28	327.737	862.5119999999999	931.558	51.3809	653.446	982.377	211.988	656.053	979.648	134.192	661.437	1029.88	177.458	918.234	1026.49	444.146	-0	0	0	-0	0	0	-0	0	0	1025.11	778.8150000000001	388.095	1016.89	788.429	345.666	982.849	768.515	404.71	734.354	1036.07	-77.1829	-0	0	0	-0	0	0	-0	0	0	718.779	766.664	-106.205	679.609	795.279	-110.356	734.197	779.654	-61.8093	851.421	774.48	23.6959	976.076	590.543	86.291	977.226	692.524	109.687	-0	0	0	-0	0	0	1033.77	514.7089999999999	155.101	967.645	437.971	80.59690000000001	900.918	177.009	77.5706	960.846	294.998	153.945	-0	0	0	-0	0	0	750.521	745.295	344.926	735.9	528.7670000000001	309.17	818.126	646.753	332.957	-0	0	0	-0	0	0	795.438	410.547	255.647	611.556	417.181	313.809	452.939	284.53	296.955	598.691	306.676	241.735	-0	0	0	-0	0	0	314.348	272.569	244.355	466.302	17.8193	229.473	411.561	75.1497	178.089	390.351	68.26049999999999	293.22	332.01	162.724	286.095	447.615	163.427	249.246	439.148	44.2265	185.819	427.79	36.9776	276.177	803.674	62.6279	123.491	1103.86	52.7091	130.362	1020.78	32.1813	179.235	1012.92	33.6319	65.0325	904.76	28.631	69.7765	968.914	119.192	124.953	1063.91	35.3952	171.464	1067.17	36.695	76.879	-0	0	0	654.75	981.013	173.09	-200	0	0	-0	0	200	-0	200	0	
220	2.683333	959.817	1316.7	177.2	808.0309999999999	1409.36	201.137	928.696	1344.4	351.239	856.04	1354.92	13.6529	965.668	1150.58	182.554	699.888	1233	199.98	858.002	921.6660000000001	327.154	872.718	932.898	50.6634	663.354	982.735	211.308	665.944	980.073	133.206	671.208	1030.27	176.885	925.602	1026.91	443.881	-0	0	0	-0	0	0	-0	0	0	1029.52	777.5650000000001	389.267	1021.59	786.95	347.087	987.124	767.9930000000001	406.101	749.237	1034.89	-77.6996	-0	0	0	-0	0	0	-0	0	0	739.224	765.2430000000001	-106.474	699.49	793.0119999999999	-111.043	753.4400000000001	778.5170000000001	-61.9137	860.372	774.27	22.6043	981.534	587.516	85.5564	986.164	688.256	106.537	-0	0	0	-0	0	0	1040.4	512.829	154.784	972.099	437.095	80.1255	902.6	176.938	77.7342	964.037	294.391	153.888	-0	0	0	-0	0	0	763.174	745.208	344.288	753.018	528.453	309.545	832.691	648.1130000000001	333.291	-0	0	0	-0	0	0	815.016	411.661	257.337	629.765	419.555	314.704	469.309	289.876	298.061	615.208	308.867	242.106	-0	0	0	-0	0	0	333.522	281.859	243.406	471.94	18.2783	232.367	422.366	79.9473	178.951	398.894	74.2465	293.707	344.969	171.463	285.562	461.362	166.513	250.653	447.004	45.9976	187.938	433.2	39.6744	277.437	803.77	62.7661	123.544	1103.97	52.3749	130.373	1020.8	32.0151	179.397	1013.03	33.6404	65.191	904.814	28.6776	69.81010000000001	969.284	119.232	125.208	1063.98	35.1921	171.501	1067.21	36.5609	76.95059999999999	-0	0	0	664.649	981.404	172.257	-200	0	0	-0	0	200	-0	200	0	
